<svg width="1920" height="480" viewBox="0 0 1920 480" fill="none" xmlns="http://www.w3.org/2000/svg">
<rect width="1920" height="480" rx="50" fill="#1F1F1F"/>
<path d="M267.852 373C246.252 373 225.985 369 207.052 361C188.385 352.733 171.985 341.4 157.852 327C143.985 312.333 133.052 295.267 125.052 275.8C117.318 256.333 113.452 235.267 113.452 212.6C113.452 190.2 117.318 169.4 125.052 150.2C133.052 130.733 143.985 113.8 157.852 99.4C171.985 84.7333 188.385 73.2667 207.052 65C225.718 56.7333 245.985 52.6 267.852 52.6C288.385 52.6 305.985 55.2667 320.652 60.6C335.585 65.9333 350.518 74.7333 365.452 87C367.585 88.6 369.185 90.3333 370.252 92.2C371.585 93.8 372.385 95.5333 372.652 97.4C373.185 99 373.452 101 373.452 103.4C373.452 108.467 371.585 112.733 367.852 116.2C364.385 119.667 359.985 121.533 354.652 121.8C349.585 122.067 344.785 120.333 340.252 116.6C330.385 108.067 320.118 101.533 309.452 97C299.052 92.4667 285.185 90.2 267.852 90.2C252.118 90.2 237.318 93.4 223.452 99.8C209.585 106.2 197.318 115 186.652 126.2C176.252 137.4 168.118 150.467 162.252 165.4C156.385 180.067 153.452 195.8 153.452 212.6C153.452 229.667 156.385 245.667 162.252 260.6C168.118 275.267 176.252 288.2 186.652 299.4C197.318 310.6 209.585 319.4 223.452 325.8C237.318 331.933 252.118 335 267.852 335C281.452 335 294.252 332.733 306.252 328.2C318.518 323.4 330.252 316.867 341.452 308.6C346.252 305.133 350.918 303.667 355.452 304.2C360.252 304.467 364.252 306.333 367.452 309.8C370.652 313 372.252 317.533 372.252 323.4C372.252 326.067 371.718 328.733 370.652 331.4C369.852 333.8 368.252 336.067 365.852 338.2C351.718 349.933 336.385 358.733 319.852 364.6C303.318 370.2 285.985 373 267.852 373ZM372.252 323.4L332.252 315.4V243.8H277.052C271.185 243.8 266.252 242.067 262.252 238.6C258.252 235.133 256.252 230.733 256.252 225.4C256.252 220.067 258.252 215.667 262.252 212.2C266.252 208.733 271.185 207 277.052 207H351.852C357.985 207 362.918 209 366.652 213C370.385 216.733 372.252 221.667 372.252 227.8V323.4ZM614.389 232.2C614.389 216.2 618.256 201.933 625.989 189.4C633.989 176.6 644.656 166.467 657.989 159C671.322 151.533 685.989 147.8 701.989 147.8C717.989 147.8 729.856 150.467 737.589 155.8C745.589 160.867 748.656 167 746.789 174.2C745.989 177.933 744.389 180.867 741.989 183C739.856 184.867 737.322 186.067 734.389 186.6C731.456 187.133 728.256 187 724.789 186.2C707.722 182.733 692.389 182.467 678.789 185.4C665.189 188.333 654.389 193.8 646.389 201.8C638.656 209.8 634.789 219.933 634.789 232.2H614.389ZM614.789 369C608.389 369 603.456 367.4 599.989 364.2C596.522 360.733 594.789 355.667 594.789 349V170.2C594.789 163.8 596.522 158.867 599.989 155.4C603.456 151.933 608.389 150.2 614.789 150.2C621.456 150.2 626.389 151.933 629.589 155.4C633.056 158.6 634.789 163.533 634.789 170.2V349C634.789 355.4 633.056 360.333 629.589 363.8C626.389 367.267 621.456 369 614.789 369ZM973.72 369C967.854 369 962.92 367.133 958.92 363.4C955.187 359.4 953.32 354.467 953.32 348.6V170.6C953.32 164.467 955.187 159.533 958.92 155.8C962.92 152.067 967.854 150.2 973.72 150.2C979.854 150.2 984.787 152.067 988.52 155.8C992.254 159.533 994.12 164.467 994.12 170.6V348.6C994.12 354.467 992.254 359.4 988.52 363.4C984.787 367.133 979.854 369 973.72 369ZM973.72 114.6C966.52 114.6 960.254 112.067 954.92 107C949.854 101.667 947.32 95.4 947.32 88.2C947.32 81 949.854 74.8667 954.92 69.8C960.254 64.4667 966.52 61.8 973.72 61.8C980.92 61.8 987.054 64.4667 992.12 69.8C997.454 74.8667 1000.12 81 1000.12 88.2C1000.12 95.4 997.454 101.667 992.12 107C987.054 112.067 980.92 114.6 973.72 114.6ZM1250.82 361.4L1223.62 337.4L1359.62 157.8L1386.42 181.8L1250.82 361.4ZM1238.82 369C1226.29 369 1220.02 362.733 1220.02 350.2C1220.02 337.667 1226.29 331.4 1238.82 331.4H1375.22C1387.76 331.4 1394.02 337.667 1394.02 350.2C1394.02 362.733 1387.76 369 1375.22 369H1238.82ZM1234.82 187.8C1222.29 187.8 1216.02 181.533 1216.02 169C1216.02 156.467 1222.29 150.2 1234.82 150.2H1371.22C1383.76 150.2 1390.02 156.467 1390.02 169C1390.02 181.533 1383.76 187.8 1371.22 187.8H1234.82ZM1689.43 370.6C1669.96 370.6 1652.49 365.8 1637.03 356.2C1621.56 346.333 1609.29 333.133 1600.23 316.6C1591.43 299.8 1587.03 280.867 1587.03 259.8C1587.03 238.733 1591.83 219.8 1601.43 203C1611.29 186.2 1624.49 173 1641.03 163.4C1657.83 153.533 1676.63 148.6 1697.43 148.6C1718.23 148.6 1736.89 153.533 1753.43 163.4C1769.96 173 1783.03 186.2 1792.63 203C1802.49 219.8 1807.43 238.733 1807.43 259.8H1791.83C1791.83 280.867 1787.29 299.8 1778.23 316.6C1769.43 333.133 1757.29 346.333 1741.83 356.2C1726.36 365.8 1708.89 370.6 1689.43 370.6ZM1697.43 334.6C1711.03 334.6 1723.16 331.4 1733.83 325C1744.49 318.333 1752.89 309.4 1759.03 298.2C1765.16 286.733 1768.23 273.933 1768.23 259.8C1768.23 245.4 1765.16 232.6 1759.03 221.4C1752.89 209.933 1744.49 201 1733.83 194.6C1723.16 187.933 1711.03 184.6 1697.43 184.6C1684.09 184.6 1671.96 187.933 1661.03 194.6C1650.36 201 1641.83 209.933 1635.43 221.4C1629.29 232.6 1626.23 245.4 1626.23 259.8C1626.23 273.933 1629.29 286.733 1635.43 298.2C1641.83 309.4 1650.36 318.333 1661.03 325C1671.96 331.4 1684.09 334.6 1697.43 334.6ZM1787.03 369.4C1781.16 369.4 1776.23 367.533 1772.23 363.8C1768.49 359.8 1766.63 354.867 1766.63 349V287.8L1774.23 245.4L1807.43 259.8V349C1807.43 354.867 1805.43 359.8 1801.43 363.8C1797.69 367.533 1792.89 369.4 1787.03 369.4Z" fill="#D9D9D9"/>
<path d="M267.852 373C246.252 373 225.985 369 207.052 361C188.385 352.733 171.985 341.4 157.852 327C143.985 312.333 133.052 295.267 125.052 275.8C117.318 256.333 113.452 235.267 113.452 212.6C113.452 190.2 117.318 169.4 125.052 150.2C133.052 130.733 143.985 113.8 157.852 99.4C171.985 84.7333 188.385 73.2667 207.052 65C225.718 56.7333 245.985 52.6 267.852 52.6C288.385 52.6 305.985 55.2667 320.652 60.6C335.585 65.9333 350.518 74.7333 365.452 87C367.585 88.6 369.185 90.3333 370.252 92.2C371.585 93.8 372.385 95.5333 372.652 97.4C373.185 99 373.452 101 373.452 103.4C373.452 108.467 371.585 112.733 367.852 116.2C364.385 119.667 359.985 121.533 354.652 121.8C349.585 122.067 344.785 120.333 340.252 116.6C330.385 108.067 320.118 101.533 309.452 97C299.052 92.4667 285.185 90.2 267.852 90.2C252.118 90.2 237.318 93.4 223.452 99.8C209.585 106.2 197.318 115 186.652 126.2C176.252 137.4 168.118 150.467 162.252 165.4C156.385 180.067 153.452 195.8 153.452 212.6C153.452 229.667 156.385 245.667 162.252 260.6C168.118 275.267 176.252 288.2 186.652 299.4C197.318 310.6 209.585 319.4 223.452 325.8C237.318 331.933 252.118 335 267.852 335C281.452 335 294.252 332.733 306.252 328.2C318.518 323.4 330.252 316.867 341.452 308.6C346.252 305.133 350.918 303.667 355.452 304.2C360.252 304.467 364.252 306.333 367.452 309.8C370.652 313 372.252 317.533 372.252 323.4C372.252 326.067 371.718 328.733 370.652 331.4C369.852 333.8 368.252 336.067 365.852 338.2C351.718 349.933 336.385 358.733 319.852 364.6C303.318 370.2 285.985 373 267.852 373ZM372.252 323.4L332.252 315.4V243.8H277.052C271.185 243.8 266.252 242.067 262.252 238.6C258.252 235.133 256.252 230.733 256.252 225.4C256.252 220.067 258.252 215.667 262.252 212.2C266.252 208.733 271.185 207 277.052 207H351.852C357.985 207 362.918 209 366.652 213C370.385 216.733 372.252 221.667 372.252 227.8V323.4ZM614.389 232.2C614.389 216.2 618.256 201.933 625.989 189.4C633.989 176.6 644.656 166.467 657.989 159C671.322 151.533 685.989 147.8 701.989 147.8C717.989 147.8 729.856 150.467 737.589 155.8C745.589 160.867 748.656 167 746.789 174.2C745.989 177.933 744.389 180.867 741.989 183C739.856 184.867 737.322 186.067 734.389 186.6C731.456 187.133 728.256 187 724.789 186.2C707.722 182.733 692.389 182.467 678.789 185.4C665.189 188.333 654.389 193.8 646.389 201.8C638.656 209.8 634.789 219.933 634.789 232.2H614.389ZM614.789 369C608.389 369 603.456 367.4 599.989 364.2C596.522 360.733 594.789 355.667 594.789 349V170.2C594.789 163.8 596.522 158.867 599.989 155.4C603.456 151.933 608.389 150.2 614.789 150.2C621.456 150.2 626.389 151.933 629.589 155.4C633.056 158.6 634.789 163.533 634.789 170.2V349C634.789 355.4 633.056 360.333 629.589 363.8C626.389 367.267 621.456 369 614.789 369ZM973.72 369C967.854 369 962.92 367.133 958.92 363.4C955.187 359.4 953.32 354.467 953.32 348.6V170.6C953.32 164.467 955.187 159.533 958.92 155.8C962.92 152.067 967.854 150.2 973.72 150.2C979.854 150.2 984.787 152.067 988.52 155.8C992.254 159.533 994.12 164.467 994.12 170.6V348.6C994.12 354.467 992.254 359.4 988.52 363.4C984.787 367.133 979.854 369 973.72 369ZM973.72 114.6C966.52 114.6 960.254 112.067 954.92 107C949.854 101.667 947.32 95.4 947.32 88.2C947.32 81 949.854 74.8667 954.92 69.8C960.254 64.4667 966.52 61.8 973.72 61.8C980.92 61.8 987.054 64.4667 992.12 69.8C997.454 74.8667 1000.12 81 1000.12 88.2C1000.12 95.4 997.454 101.667 992.12 107C987.054 112.067 980.92 114.6 973.72 114.6ZM1250.82 361.4L1223.62 337.4L1359.62 157.8L1386.42 181.8L1250.82 361.4ZM1238.82 369C1226.29 369 1220.02 362.733 1220.02 350.2C1220.02 337.667 1226.29 331.4 1238.82 331.4H1375.22C1387.76 331.4 1394.02 337.667 1394.02 350.2C1394.02 362.733 1387.76 369 1375.22 369H1238.82ZM1234.82 187.8C1222.29 187.8 1216.02 181.533 1216.02 169C1216.02 156.467 1222.29 150.2 1234.82 150.2H1371.22C1383.76 150.2 1390.02 156.467 1390.02 169C1390.02 181.533 1383.76 187.8 1371.22 187.8H1234.82ZM1689.43 370.6C1669.96 370.6 1652.49 365.8 1637.03 356.2C1621.56 346.333 1609.29 333.133 1600.23 316.6C1591.43 299.8 1587.03 280.867 1587.03 259.8C1587.03 238.733 1591.83 219.8 1601.43 203C1611.29 186.2 1624.49 173 1641.03 163.4C1657.83 153.533 1676.63 148.6 1697.43 148.6C1718.23 148.6 1736.89 153.533 1753.43 163.4C1769.96 173 1783.03 186.2 1792.63 203C1802.49 219.8 1807.43 238.733 1807.43 259.8H1791.83C1791.83 280.867 1787.29 299.8 1778.23 316.6C1769.43 333.133 1757.29 346.333 1741.83 356.2C1726.36 365.8 1708.89 370.6 1689.43 370.6ZM1697.43 334.6C1711.03 334.6 1723.16 331.4 1733.83 325C1744.49 318.333 1752.89 309.4 1759.03 298.2C1765.16 286.733 1768.23 273.933 1768.23 259.8C1768.23 245.4 1765.16 232.6 1759.03 221.4C1752.89 209.933 1744.49 201 1733.83 194.6C1723.16 187.933 1711.03 184.6 1697.43 184.6C1684.09 184.6 1671.96 187.933 1661.03 194.6C1650.36 201 1641.83 209.933 1635.43 221.4C1629.29 232.6 1626.23 245.4 1626.23 259.8C1626.23 273.933 1629.29 286.733 1635.43 298.2C1641.83 309.4 1650.36 318.333 1661.03 325C1671.96 331.4 1684.09 334.6 1697.43 334.6ZM1787.03 369.4C1781.16 369.4 1776.23 367.533 1772.23 363.8C1768.49 359.8 1766.63 354.867 1766.63 349V287.8L1774.23 245.4L1807.43 259.8V349C1807.43 354.867 1805.43 359.8 1801.43 363.8C1797.69 367.533 1792.89 369.4 1787.03 369.4Z" fill="url(#paint0_radial_102_4)"/>
<defs>
<radialGradient id="paint0_radial_102_4" cx="0" cy="0" r="1" gradientUnits="userSpaceOnUse" gradientTransform="translate(960 240) rotate(90) scale(240 960)">
<stop stop-color="#FF7A00"/>
<stop offset="1" stop-color="#34008A" stop-opacity="0.57"/>
</radialGradient>
</defs>
</svg>
